<?xml version="1.0" encoding="UTF-8"?>
<!DOCTYPE svg PUBLIC "-//W3C//DTD SVG 1.1//EN" "http://www.w3.org/Graphics/SVG/1.1/DTD/svg11.dtd">
<!-- Creator: CorelDRAW -->
<svg xmlns="http://www.w3.org/2000/svg" xml:space="preserve" width="44.0266mm" height="44.0266mm" version="1.1" style="shape-rendering:geometricPrecision; text-rendering:geometricPrecision; image-rendering:optimizeQuality; fill-rule:evenodd; clip-rule:evenodd"
viewBox="0 0 4402.66 4402.66"
 xmlns:xlink="http://www.w3.org/1999/xlink"
 xmlns:xodm="http://www.corel.com/coreldraw/odm/2003">
 <defs>
  <style type="text/css">
   <![CDATA[
    .fil1 {fill:white;fill-rule:nonzero}
    .fil0 {fill:url(#id0);fill-rule:nonzero}
   ]]>
  </style>
  <linearGradient id="id0" gradientUnits="userSpaceOnUse" x1="557.77" y1="2803.84" x2="3854.66" y2="2803.84">
   <stop offset="0" style="stop-opacity:1; stop-color:#EF4136"/>
   <stop offset="1" style="stop-opacity:1; stop-color:#FBB040"/>
  </linearGradient>
 </defs>
 <g id="Camada_x0020_1">
  <metadata id="CorelCorpID_0Corel-Layer"/>
  <g id="_2342629230928">
   <g id="SvgjsG3081" featurekey="mo6dJk-0">
    <path class="fil0" d="M596.9 2661.06c20.11,0 35.51,3.66 46.23,10.98 10.72,7.33 16.08,18.78 16.08,34.35 0,8.12 -1.43,15.08 -4.3,20.87 -2.86,5.79 -7.02,10.52 -12.48,14.18 -5.46,3.66 -12.11,6.35 -19.97,8.08 -7.85,1.73 -16.84,2.6 -26.95,2.6l-12.59 0 0 48.72 -25.16 0 0 -136.38c5.86,-1.34 12.35,-2.23 19.47,-2.7 7.13,-0.47 13.68,-0.7 19.67,-0.7zm1.8 21.77c-6.39,0 -11.65,0.2 -15.78,0.6l0 47.12 12.19 0c12.11,0 21.43,-1.69 27.95,-5.09 6.53,-3.39 9.79,-9.82 9.79,-19.27 0,-4.53 -0.87,-8.32 -2.6,-11.38 -1.73,-3.06 -4.13,-5.46 -7.19,-7.19 -3.06,-1.73 -6.69,-2.96 -10.88,-3.69 -4.19,-0.74 -8.69,-1.1 -13.48,-1.1zm298.14 -21.77c19.97,0 35.24,3.66 45.83,10.98 10.58,7.33 15.87,18.51 15.87,33.55 0,18.77 -9.25,31.49 -27.75,38.14 2.53,3.07 5.39,6.79 8.58,11.19 3.2,4.39 6.46,9.15 9.79,14.27 3.33,5.13 6.52,10.39 9.58,15.78 3.06,5.39 5.79,10.68 8.19,15.87l-28.16 0c-2.53,-4.79 -5.26,-9.61 -8.18,-14.47 -2.93,-4.86 -5.89,-9.59 -8.89,-14.18 -3,-4.59 -5.96,-8.92 -8.89,-12.98 -2.93,-4.06 -5.65,-7.69 -8.18,-10.88 -1.87,0.13 -3.46,0.2 -4.8,0.2l-3.79 0 -12.18 0 0 52.31 -25.16 0 0 -136.38c6.12,-1.34 12.64,-2.23 19.57,-2.7 6.92,-0.47 13.11,-0.7 18.57,-0.7zm1.8 21.77c-5.33,0 -10.26,0.2 -14.78,0.6l0 44.73 10.98 0c6.13,0 11.52,-0.34 16.18,-1 4.66,-0.67 8.55,-1.86 11.68,-3.6 3.13,-1.73 5.49,-4.06 7.09,-6.98 1.59,-2.93 2.39,-6.66 2.39,-11.19 0,-4.26 -0.8,-7.85 -2.39,-10.78 -1.6,-2.93 -3.9,-5.26 -6.89,-6.99 -3,-1.73 -6.56,-2.96 -10.69,-3.69 -4.12,-0.74 -8.65,-1.1 -13.57,-1.1zm284.95 48.72c0,7.59 0.94,14.48 2.8,20.67 1.86,6.19 4.56,11.45 8.09,15.78 3.53,4.32 7.82,7.68 12.88,10.08 5.06,2.4 10.78,3.59 17.17,3.59 6.26,0 11.92,-1.19 16.97,-3.59 5.06,-2.4 9.36,-5.76 12.88,-10.08 3.53,-4.33 6.23,-9.59 8.09,-15.78 1.87,-6.19 2.8,-13.08 2.8,-20.67 0,-7.59 -0.93,-14.48 -2.8,-20.67 -1.86,-6.19 -4.56,-11.45 -8.09,-15.77 -3.52,-4.33 -7.82,-7.69 -12.88,-10.09 -5.05,-2.39 -10.71,-3.59 -16.97,-3.59 -6.39,0 -12.11,1.2 -17.17,3.59 -5.06,2.4 -9.35,5.8 -12.88,10.19 -3.53,4.39 -6.23,9.65 -8.09,15.77 -1.86,6.13 -2.8,12.98 -2.8,20.57zm108.04 0c0,11.85 -1.77,22.3 -5.29,31.35 -3.53,9.06 -8.32,16.61 -14.38,22.67 -6.06,6.06 -13.15,10.62 -21.27,13.68 -8.12,3.06 -16.77,4.59 -25.96,4.59 -9.19,0 -17.87,-1.53 -26.06,-4.59 -8.19,-3.06 -15.31,-7.62 -21.37,-13.68 -6.05,-6.06 -10.88,-13.61 -14.47,-22.67 -3.6,-9.05 -5.4,-19.5 -5.4,-31.35 0,-11.85 1.8,-22.26 5.4,-31.25 3.59,-8.99 8.48,-16.54 14.67,-22.66 6.19,-6.13 13.35,-10.72 21.47,-13.78 8.12,-3.07 16.71,-4.6 25.76,-4.6 9.05,0 17.64,1.53 25.76,4.6 8.12,3.06 15.21,7.65 21.27,13.78 6.06,6.12 10.88,13.67 14.48,22.66 3.59,8.99 5.39,19.4 5.39,31.25zm268.78 -50.12c-14.24,0 -25.13,4.43 -32.65,13.28 -7.52,8.85 -11.28,21.13 -11.28,36.84 0,7.46 0.9,14.28 2.69,20.47 1.8,6.19 4.46,11.48 7.99,15.88 3.53,4.39 7.92,7.82 13.18,10.28 5.26,2.46 11.42,3.69 18.47,3.69 4.4,0 8.19,-0.16 11.39,-0.5 3.19,-0.33 5.72,-0.76 7.58,-1.29l0 -49.73 25.17 0 0 66.5c-3.47,1.33 -9.32,2.8 -17.58,4.39 -8.25,1.6 -17.77,2.4 -28.55,2.4 -9.99,0 -19.11,-1.6 -27.36,-4.79 -8.26,-3.2 -15.28,-7.86 -21.07,-13.98 -5.79,-6.12 -10.28,-13.65 -13.48,-22.57 -3.19,-8.92 -4.79,-19.17 -4.79,-30.75 0,-11.58 1.76,-21.83 5.29,-30.75 3.53,-8.92 8.36,-16.48 14.48,-22.67 6.12,-6.19 13.31,-10.88 21.57,-14.07 8.25,-3.2 17.04,-4.8 26.35,-4.8 6.39,0 12.09,0.44 17.08,1.3 4.99,0.87 9.28,1.83 12.88,2.9 3.59,1.06 6.56,2.19 8.88,3.39 2.33,1.2 3.97,2.07 4.9,2.6l-7.59 20.57c-3.99,-2.4 -8.95,-4.43 -14.88,-6.09 -5.92,-1.67 -12.15,-2.5 -18.67,-2.5zm286.36 -20.37c19.97,0 35.24,3.66 45.83,10.98 10.58,7.33 15.87,18.51 15.87,33.55 0,18.77 -9.25,31.49 -27.75,38.14 2.52,3.07 5.39,6.79 8.58,11.19 3.2,4.39 6.46,9.15 9.79,14.27 3.33,5.13 6.52,10.39 9.58,15.78 3.06,5.39 5.79,10.68 8.19,15.87l-28.16 0c-2.53,-4.79 -5.26,-9.61 -8.18,-14.47 -2.93,-4.86 -5.9,-9.59 -8.89,-14.18 -3,-4.59 -5.96,-8.92 -8.89,-12.98 -2.93,-4.06 -5.65,-7.69 -8.18,-10.88 -1.87,0.13 -3.47,0.2 -4.8,0.2l-3.79 0 -12.18 0 0 52.31 -25.16 0 0 -136.38c6.12,-1.34 12.64,-2.23 19.57,-2.7 6.92,-0.47 13.11,-0.7 18.57,-0.7zm1.79 21.77c-5.32,0 -10.25,0.2 -14.77,0.6l0 44.73 10.98 0c6.12,0 11.52,-0.34 16.18,-1 4.66,-0.67 8.55,-1.86 11.68,-3.6 3.13,-1.73 5.49,-4.06 7.09,-6.98 1.59,-2.93 2.39,-6.66 2.39,-11.19 0,-4.26 -0.8,-7.85 -2.39,-10.78 -1.6,-2.93 -3.9,-5.26 -6.89,-6.99 -3,-1.73 -6.56,-2.96 -10.69,-3.69 -4.12,-0.74 -8.65,-1.1 -13.58,-1.1zm356.25 118.01c-1.86,-5.45 -3.79,-10.85 -5.79,-16.17 -1.99,-5.33 -3.92,-10.78 -5.79,-16.37l-58.31 0c-1.86,5.59 -3.76,11.08 -5.69,16.47 -1.93,5.39 -3.83,10.75 -5.69,16.07l-26.16 0c5.19,-14.77 10.12,-28.42 14.78,-40.93 4.66,-12.52 9.22,-24.36 13.68,-35.55 4.46,-11.18 8.88,-21.83 13.28,-31.95 4.39,-10.12 8.91,-20.1 13.57,-29.95l23.77 0c4.66,9.85 9.18,19.83 13.58,29.95 4.39,10.12 8.82,20.77 13.28,31.95 4.46,11.19 9.05,23.03 13.77,35.55 4.73,12.51 9.69,26.16 14.88,40.93l-27.16 0zm-40.73 -111.62c-3.07,7.05 -6.56,15.64 -10.49,25.76 -3.92,10.12 -8.02,21.1 -12.28,32.95l45.53 0c-4.26,-11.85 -8.39,-22.9 -12.38,-33.15 -3.99,-10.25 -7.45,-18.77 -10.38,-25.56zm292.14 -26.76c2.93,5.06 6.19,11.25 9.79,18.57 3.59,7.32 7.25,15.01 10.98,23.06 3.73,8.06 7.42,16.25 11.08,24.57 3.67,8.32 7.03,16.01 10.09,23.06 3.06,-7.05 6.39,-14.74 9.98,-23.06 3.6,-8.32 7.26,-16.51 10.99,-24.57 3.72,-8.05 7.39,-15.74 10.98,-23.06 3.59,-7.32 6.86,-13.51 9.78,-18.57l22.77 0c1.2,10.12 2.33,20.87 3.39,32.25 1.07,11.38 2.03,23.03 2.9,34.94 0.86,11.92 1.66,23.9 2.4,35.95 0.73,12.05 1.36,23.8 1.89,35.24l-24.76 0c-0.53,-16.1 -1.16,-32.68 -1.9,-49.72 -0.73,-17.04 -1.83,-33.55 -3.29,-49.52 -1.47,3.06 -3.2,6.72 -5.19,10.98 -2,4.26 -4.13,8.89 -6.39,13.88 -2.27,4.99 -4.56,10.15 -6.89,15.48 -2.33,5.32 -4.59,10.48 -6.79,15.47 -2.2,4.99 -4.23,9.65 -6.09,13.98 -1.87,4.33 -3.46,8.02 -4.79,11.08l-18.78 0c-1.33,-3.06 -2.92,-6.79 -4.79,-11.18 -1.86,-4.39 -3.89,-9.09 -6.09,-14.08 -2.2,-4.99 -4.46,-10.15 -6.79,-15.47 -2.33,-5.33 -4.62,-10.45 -6.89,-15.38 -2.26,-4.93 -4.39,-9.55 -6.39,-13.88 -1.99,-4.33 -3.73,-7.95 -5.19,-10.88 -1.46,15.97 -2.56,32.48 -3.29,49.52 -0.74,17.04 -1.37,33.62 -1.9,49.72l-24.76 0c0.53,-11.44 1.16,-23.29 1.89,-35.54 0.74,-12.25 1.53,-24.4 2.4,-36.44 0.87,-12.05 1.83,-23.73 2.9,-35.05 1.06,-11.32 2.19,-21.77 3.39,-31.35l23.36 0 0 0zm414.76 138.38c-1.86,-5.45 -3.79,-10.85 -5.79,-16.17 -2,-5.33 -3.93,-10.78 -5.79,-16.37l-58.31 0c-1.86,5.59 -3.76,11.08 -5.69,16.47 -1.93,5.39 -3.83,10.75 -5.69,16.07l-26.16 0c5.19,-14.77 10.12,-28.42 14.78,-40.93 4.65,-12.52 9.21,-24.36 13.67,-35.55 4.46,-11.18 8.89,-21.83 13.28,-31.95 4.4,-10.12 8.92,-20.1 13.58,-29.95l23.77 0c4.66,9.85 9.18,19.83 13.57,29.95 4.4,10.12 8.82,20.77 13.28,31.95 4.46,11.19 9.06,23.03 13.78,35.55 4.73,12.51 9.69,26.16 14.88,40.93l-27.16 0zm-40.74 -111.62c-3.06,7.05 -6.55,15.64 -10.48,25.76 -3.93,10.12 -8.02,21.1 -12.28,32.95l45.53 0c-4.26,-11.85 -8.39,-22.9 -12.38,-33.15 -4,-10.25 -7.46,-18.77 -10.39,-25.56zm287.16 90.86c1.46,0.13 3.4,0.23 5.79,0.3 2.4,0.06 5.66,0.1 9.79,0.1 16.9,0 29.52,-4.3 37.84,-12.88 8.32,-8.59 12.48,-20.61 12.48,-36.05 0,-15.71 -4.06,-27.75 -12.18,-36.14 -8.12,-8.39 -20.7,-12.58 -37.74,-12.58 -7.46,0 -12.78,0.2 -15.98,0.6l0 96.65zm92.26 -48.53c0,11.98 -1.87,22.4 -5.59,31.25 -3.73,8.86 -9.02,16.25 -15.88,22.17 -6.86,5.92 -15.11,10.32 -24.76,13.18 -9.65,2.86 -20.34,4.29 -32.05,4.29 -5.59,0 -11.92,-0.23 -18.97,-0.7 -7.06,-0.46 -13.78,-1.43 -20.17,-2.89l0 -134.39c6.39,-1.47 13.18,-2.4 20.37,-2.8 7.19,-0.4 13.58,-0.6 19.17,-0.6 11.58,0 22.16,1.37 31.75,4.1 9.58,2.72 17.8,6.98 24.66,12.77 6.86,5.8 12.15,13.12 15.88,21.97 3.72,8.85 5.59,19.4 5.59,31.65zm224.65 0c0,7.59 0.93,14.48 2.8,20.67 1.86,6.19 4.55,11.45 8.08,15.78 3.53,4.32 7.82,7.68 12.88,10.08 5.06,2.4 10.79,3.59 17.18,3.59 6.25,0 11.91,-1.19 16.97,-3.59 5.06,-2.4 9.35,-5.76 12.88,-10.08 3.53,-4.33 6.22,-9.59 8.09,-15.78 1.86,-6.19 2.79,-13.08 2.79,-20.67 0,-7.59 -0.93,-14.48 -2.79,-20.67 -1.87,-6.19 -4.56,-11.45 -8.09,-15.77 -3.53,-4.33 -7.82,-7.69 -12.88,-10.09 -5.06,-2.39 -10.72,-3.59 -16.97,-3.59 -6.39,0 -12.12,1.2 -17.18,3.59 -5.06,2.4 -9.35,5.8 -12.88,10.19 -3.53,4.39 -6.22,9.65 -8.08,15.77 -1.87,6.13 -2.8,12.98 -2.8,20.57zm108.03 0c0,11.85 -1.76,22.3 -5.29,31.35 -3.53,9.06 -8.32,16.61 -14.38,22.67 -6.05,6.06 -13.14,10.62 -21.26,13.68 -8.12,3.06 -16.78,4.59 -25.96,4.59 -9.19,0 -17.88,-1.53 -26.06,-4.59 -8.19,-3.06 -15.31,-7.62 -21.37,-13.68 -6.06,-6.06 -10.88,-13.61 -14.48,-22.67 -3.59,-9.05 -5.39,-19.5 -5.39,-31.35 0,-11.85 1.8,-22.26 5.39,-31.25 3.6,-8.99 8.49,-16.54 14.68,-22.66 6.19,-6.13 13.35,-10.72 21.47,-13.78 8.12,-3.07 16.7,-4.6 25.76,-4.6 9.05,0 17.64,1.53 25.76,4.6 8.12,3.06 15.21,7.65 21.26,13.78 6.06,6.12 10.89,13.67 14.48,22.66 3.6,8.99 5.39,19.4 5.39,31.25zm242.23 -70.49c19.97,0 35.24,3.66 45.83,10.98 10.58,7.33 15.87,18.51 15.87,33.55 0,18.77 -9.25,31.49 -27.76,38.14 2.53,3.07 5.4,6.79 8.59,11.19 3.2,4.39 6.46,9.15 9.79,14.27 3.32,5.13 6.52,10.39 9.58,15.78 3.06,5.39 5.79,10.68 8.19,15.87l-28.16 0c-2.53,-4.79 -5.26,-9.61 -8.18,-14.47 -2.93,-4.86 -5.9,-9.59 -8.89,-14.18 -3,-4.59 -5.96,-8.92 -8.89,-12.98 -2.93,-4.06 -5.66,-7.69 -8.18,-10.88 -1.87,0.13 -3.47,0.2 -4.8,0.2l-3.79 0 -12.18 0 0 52.31 -25.16 0 0 -136.38c6.12,-1.34 12.64,-2.23 19.57,-2.7 6.92,-0.47 13.11,-0.7 18.57,-0.7zm1.79 21.77c-5.32,0 -10.25,0.2 -14.77,0.6l0 44.73 10.98 0c6.12,0 11.52,-0.34 16.18,-1 4.65,-0.67 8.55,-1.86 11.68,-3.6 3.13,-1.73 5.49,-4.06 7.09,-6.98 1.59,-2.93 2.39,-6.66 2.39,-11.19 0,-4.26 -0.8,-7.85 -2.39,-10.78 -1.6,-2.93 -3.9,-5.26 -6.89,-6.99 -3,-1.73 -6.56,-2.96 -10.69,-3.69 -4.12,-0.74 -8.65,-1.1 -13.58,-1.1z"/>
   </g>
   <g id="SvgjsG2745" featurekey="Yxc9Rz-0">
    <path class="fil1" d="M143.93 2456.22c2.03,-22.39 8.99,-44.78 20.86,-67.16 11.87,-22.39 25.95,-40.71 42.23,-54.96 72.59,44.1 141.45,66.15 206.58,66.15 28.5,0 49.36,-6.44 62.59,-19.33 13.23,-12.89 19.84,-28.84 19.84,-47.83 0,-31.89 -21.37,-56.99 -64.11,-75.31l-120.08 -50.88c-46.81,-21.03 -82.77,-46.3 -107.87,-75.81 -25.1,-29.52 -37.65,-67 -37.65,-112.45 0,-31.21 6.27,-59.7 18.82,-85.48 12.56,-25.79 30.19,-48.17 52.92,-67.17 22.73,-18.99 49.7,-33.75 80.9,-44.27 31.21,-10.51 65.81,-15.77 103.8,-15.77 75.99,0 152.65,19.34 229.99,58.01 -3.39,52.23 -21.71,92.94 -54.95,122.11 -69.2,-33.24 -130.26,-49.86 -183.18,-49.86 -27.14,0 -47.49,6.1 -61.06,18.32 -13.57,12.21 -20.35,26.11 -20.35,41.72 0,26.46 20.01,47.83 60.04,64.11l122.12 51.9c51.56,21.71 90.06,49.52 115.5,83.45 25.44,33.92 38.16,73.27 38.16,118.04 0,31.89 -5.77,61.06 -17.3,87.52 -11.53,26.46 -28.66,49.35 -51.39,68.69 -22.73,19.33 -51.05,34.43 -84.97,45.28 -33.92,10.86 -73.61,16.29 -119.07,16.29 -88.19,0 -172.32,-25.11 -252.37,-75.31zm630.94 60.04l0 -695.05c21.03,-4.07 48.16,-6.1 81.41,-6.1 33.24,0 60.72,2.03 82.42,6.1l0 695.05c-21.7,4.07 -49.18,6.11 -82.42,6.11 -33.25,0 -60.38,-2.04 -81.41,-6.11zm578.01 -137.38l176.06 0c-0.01,27.14 -1.7,50.37 -5.09,69.71 -3.4,19.33 -14.25,35.95 -32.57,49.86 -18.32,13.91 -42.4,20.86 -72.25,20.86l-229.99 0c-29.17,0 -52.23,-8.48 -69.2,-25.44 -16.96,-16.96 -25.44,-40.02 -25.44,-69.2l0 -603.46 7.13 -7.12 60.04 0c63.77,0 95.66,34.6 95.66,103.8l0 465.06c29.85,-2.71 61.73,-4.07 95.65,-4.07zm446.75 1.02l133.31 -558.69c16.28,-4.07 37.31,-6.1 63.09,-6.1 35.28,0 63.09,3.73 83.45,11.19l6.1 8.14 -190.3 681.82c-38.67,4.07 -77.51,6.11 -116.51,6.11 -39.01,0 -67.17,-4.92 -84.47,-14.76 -17.3,-9.84 -30.36,-29.34 -39.18,-58.51l-168.93 -613.64c36.64,-15.6 66.83,-23.4 90.57,-23.4 28.5,0 49.53,6.44 63.1,19.33 13.57,12.89 24.08,33.24 31.54,61.06l78.36 290.03c12.21,45.45 25.1,107.19 38.67,185.21 1.36,8.14 5.09,12.21 11.2,12.21zm531.2 -69.2l-1.01 73.27 0 1.02c31.2,-1.36 56.31,-2.04 75.3,-2.04l236.09 0c0,25.1 -1.01,44.44 -3.05,58.01 -8.14,52.23 -42.74,78.35 -103.8,78.35l-270.69 0c-29.17,0 -52.07,-8.48 -68.69,-25.44 -16.62,-16.96 -24.93,-40.02 -24.93,-69.2l0 -596.33 7.12 -7.12 438.6 0c4.07,19.67 6.11,41.04 6.11,64.11 0,23.06 -4.75,47.15 -14.25,72.25l-277.81 0 1.01 73.27 0 71.23c17.64,-0.68 40.71,-1.01 69.2,-1.01l155.7 0c6.11,18.99 9.16,40.7 9.16,65.12 0,24.43 -3.05,46.82 -9.16,67.17l-224.9 0 0 77.34 0 0zm425.38 205.56l0 -695.05c21.03,-4.07 48.16,-6.1 81.41,-6.1 33.24,0 60.72,2.03 82.43,6.1l0 695.05c-21.71,4.07 -49.19,6.11 -82.43,6.11 -33.25,0 -60.38,-2.04 -81.41,-6.11zm819.19 -480.32c0,22.38 -3.39,43.59 -10.17,63.6 -6.79,20.01 -15.78,37.99 -26.97,53.93 -11.19,15.95 -24.42,29.85 -39.69,41.73 -15.26,11.87 -31.04,20.86 -47.32,26.96 35.28,12.89 61.4,44.1 78.36,93.63l30.53 86.5c11.53,33.92 28.49,59.02 50.88,75.3 -10.17,13.57 -25.44,24.93 -45.79,34.09 -20.35,9.16 -42.74,13.74 -67.17,13.74 -24.42,0 -43.42,-6.95 -56.98,-20.86 -13.57,-13.91 -26.12,-38.16 -37.66,-72.76l-36.63 -106.85c-7.46,-20.36 -17.47,-35.96 -30.02,-46.82 -12.55,-10.85 -31.38,-16.28 -56.48,-16.28l-41.72 0 0 254.41c-21.71,4.07 -48.85,6.11 -81.41,6.11 -32.57,0 -59.37,-2.04 -80.4,-6.11l0 -689.96 7.13 -7.12c59.02,-1.36 108.71,-2.38 149.08,-3.05 40.37,-0.68 72.08,-1.02 95.15,-1.02 37.31,0 71.23,4.58 101.76,13.74 30.53,9.16 56.48,22.89 77.85,41.21 21.37,18.32 37.99,41.39 49.87,69.2 11.87,27.82 17.8,60.04 17.8,96.68zm-336.83 -98.71l0 199.45c30.53,0 56.64,-0.51 78.35,-1.52 21.71,-1.02 39.18,-5.09 52.41,-12.22 13.23,-7.12 23.24,-17.13 30.02,-30.02 6.79,-12.89 10.18,-31.54 10.18,-55.97 0,-65.8 -31.89,-98.71 -95.66,-98.71l-42.23 0c0,0 -11.02,-0.34 -33.07,-1.01zm632.97 433.51c-18.32,0 -31.89,-0.34 -40.71,-1.02l-43.76 147.56c-16.28,4.07 -39.01,6.1 -68.18,6.1 -32.56,0 -59.02,-3.73 -79.37,-11.19l-5.09 -8.14 223.88 -682.84c26.46,-4.07 57.32,-6.1 92.6,-6.1 40.03,0 71.92,2.37 95.66,7.12l219.81 683.86c-23.74,12.89 -50.54,19.33 -80.39,19.33 -35.28,0 -60.04,-6.11 -74.29,-18.32 -14.25,-12.21 -26.46,-35.61 -36.64,-70.21l-19.33 -67.17c-8.82,0.68 -22.05,1.02 -39.69,1.02l-144.5 0 0 0zm-3.06 -128.22l40.71 -1.02 74.29 0c3.39,0 9.33,0.17 17.81,0.51 8.48,0.34 14.75,0.51 18.82,0.51l-17.3 -63.1c-16.28,-56.98 -34.94,-126.86 -55.97,-209.63l-6.1 0c-5.43,29.17 -21.71,93.96 -48.85,194.37l-23.41 78.36z"/>
   </g>
  </g>
 </g>
</svg>
