<?xml version="1.0" encoding="UTF-8"?>
<!DOCTYPE svg PUBLIC "-//W3C//DTD SVG 1.1//EN" "http://www.w3.org/Graphics/SVG/1.1/DTD/svg11.dtd">
<!-- Creator: CorelDRAW -->
<svg xmlns="http://www.w3.org/2000/svg" xml:space="preserve" width="12.7mm" height="12.7mm" version="1.1" style="shape-rendering:geometricPrecision; text-rendering:geometricPrecision; image-rendering:optimizeQuality; fill-rule:evenodd; clip-rule:evenodd"
viewBox="0 0 1270 1270"
 xmlns:xlink="http://www.w3.org/1999/xlink"
 xmlns:xodm="http://www.corel.com/coreldraw/odm/2003">
 <defs>
  <style type="text/css">
   <![CDATA[
    .fil1 {fill:white;fill-rule:nonzero}
    .fil0 {fill:url(#id0);fill-rule:nonzero}
   ]]>
  </style>
  <linearGradient id="id0" gradientUnits="userSpaceOnUse" x1="369.06" y1="883.34" x2="814.4" y2="883.34">
   <stop offset="0" style="stop-opacity:1; stop-color:#EF4136"/>
   <stop offset="1" style="stop-opacity:1; stop-color:#FBB040"/>
  </linearGradient>
 </defs>
 <g id="Camada_x0020_1">
  <metadata id="CorelCorpID_0Corel-Layer"/>
  <g id="_2342629230928">
   <g id="SvgjsG3081" featurekey="mo6dJk-0">
    <path class="fil0" d="M374.45 864.16c2.72,0 4.8,0.5 6.25,1.49 1.45,0.99 2.17,2.53 2.17,4.64 0,1.09 -0.19,2.03 -0.58,2.82 -0.39,0.78 -0.95,1.42 -1.69,1.91 -0.73,0.5 -1.63,0.86 -2.69,1.09 -1.06,0.24 -2.28,0.35 -3.64,0.35l-1.7 0 0 6.58 -3.4 0 0 -18.42c0.79,-0.18 1.67,-0.3 2.63,-0.36 0.96,-0.06 1.85,-0.1 2.65,-0.1zm0.25 2.94c-0.87,0 -1.58,0.03 -2.13,0.09l0 6.36 1.64 0c1.64,0 2.9,-0.23 3.78,-0.69 0.88,-0.46 1.32,-1.32 1.32,-2.6 0,-0.61 -0.12,-1.12 -0.35,-1.54 -0.23,-0.41 -0.56,-0.73 -0.97,-0.97 -0.41,-0.23 -0.91,-0.4 -1.47,-0.5 -0.57,-0.1 -1.17,-0.15 -1.82,-0.15zm40.27 -2.94c2.7,0 4.76,0.5 6.19,1.49 1.43,0.99 2.14,2.5 2.14,4.53 0,2.53 -1.25,4.25 -3.74,5.15 0.34,0.42 0.72,0.92 1.15,1.51 0.44,0.6 0.88,1.24 1.33,1.93 0.45,0.69 0.88,1.4 1.29,2.13 0.41,0.73 0.78,1.44 1.11,2.14l-3.81 0c-0.34,-0.64 -0.71,-1.29 -1.1,-1.95 -0.4,-0.66 -0.8,-1.3 -1.2,-1.92 -0.41,-0.62 -0.81,-1.2 -1.2,-1.75 -0.4,-0.55 -0.77,-1.04 -1.11,-1.47 -0.25,0.02 -0.47,0.03 -0.65,0.03l-0.51 0 -1.64 0 0 7.06 -3.4 0 0 -18.42c0.82,-0.18 1.7,-0.3 2.64,-0.36 0.94,-0.06 1.77,-0.1 2.51,-0.1zm0.24 2.94c-0.72,0 -1.38,0.03 -1.99,0.09l0 6.04 1.48 0c0.83,0 1.56,-0.05 2.18,-0.14 0.63,-0.09 1.16,-0.25 1.58,-0.48 0.43,-0.24 0.74,-0.55 0.96,-0.95 0.21,-0.39 0.32,-0.9 0.32,-1.51 0,-0.57 -0.11,-1.06 -0.32,-1.45 -0.22,-0.4 -0.53,-0.71 -0.93,-0.95 -0.41,-0.23 -0.89,-0.4 -1.44,-0.5 -0.56,-0.1 -1.17,-0.15 -1.84,-0.15zm38.49 6.59c0,1.02 0.13,1.95 0.38,2.79 0.25,0.83 0.62,1.54 1.09,2.13 0.48,0.58 1.06,1.04 1.74,1.36 0.69,0.32 1.46,0.49 2.32,0.49 0.85,0 1.61,-0.17 2.29,-0.49 0.69,-0.32 1.27,-0.78 1.74,-1.36 0.48,-0.59 0.85,-1.3 1.1,-2.13 0.25,-0.84 0.38,-1.77 0.38,-2.79 0,-1.03 -0.13,-1.96 -0.38,-2.8 -0.25,-0.83 -0.62,-1.54 -1.1,-2.13 -0.47,-0.58 -1.05,-1.04 -1.74,-1.36 -0.68,-0.32 -1.44,-0.48 -2.29,-0.48 -0.86,0 -1.63,0.16 -2.32,0.48 -0.68,0.32 -1.26,0.78 -1.74,1.38 -0.47,0.59 -0.84,1.3 -1.09,2.13 -0.25,0.82 -0.38,1.75 -0.38,2.78zm14.6 0c0,1.6 -0.24,3.01 -0.72,4.23 -0.48,1.22 -1.12,2.24 -1.94,3.06 -0.82,0.82 -1.78,1.44 -2.87,1.85 -1.1,0.41 -2.27,0.62 -3.51,0.62 -1.24,0 -2.41,-0.21 -3.52,-0.62 -1.11,-0.41 -2.07,-1.03 -2.89,-1.85 -0.81,-0.82 -1.47,-1.84 -1.95,-3.06 -0.49,-1.22 -0.73,-2.63 -0.73,-4.23 0,-1.61 0.24,-3.01 0.73,-4.23 0.48,-1.21 1.14,-2.23 1.98,-3.06 0.84,-0.82 1.8,-1.44 2.9,-1.86 1.1,-0.41 2.26,-0.62 3.48,-0.62 1.22,0 2.38,0.21 3.48,0.62 1.1,0.42 2.05,1.04 2.87,1.86 0.82,0.83 1.47,1.85 1.96,3.06 0.48,1.22 0.73,2.62 0.73,4.23zm36.3 -6.77c-1.92,0 -3.39,0.59 -4.41,1.79 -1.01,1.19 -1.52,2.85 -1.52,4.98 0,1 0.12,1.92 0.36,2.76 0.24,0.84 0.6,1.55 1.08,2.15 0.48,0.59 1.07,1.05 1.78,1.38 0.71,0.34 1.54,0.5 2.49,0.5 0.6,0 1.11,-0.02 1.54,-0.07 0.43,-0.04 0.78,-0.1 1.03,-0.17l0 -6.72 3.4 0 0 8.99c-0.47,0.18 -1.26,0.37 -2.38,0.59 -1.11,0.21 -2.4,0.32 -3.85,0.32 -1.35,0 -2.59,-0.21 -3.7,-0.64 -1.12,-0.44 -2.06,-1.07 -2.85,-1.89 -0.78,-0.83 -1.38,-1.85 -1.82,-3.05 -0.43,-1.21 -0.64,-2.59 -0.64,-4.15 0,-1.57 0.23,-2.95 0.71,-4.16 0.48,-1.2 1.13,-2.22 1.96,-3.06 0.82,-0.84 1.79,-1.47 2.91,-1.9 1.11,-0.43 2.3,-0.65 3.56,-0.65 0.86,0 1.63,0.06 2.31,0.18 0.67,0.11 1.25,0.24 1.74,0.39 0.48,0.14 0.88,0.29 1.2,0.46 0.31,0.16 0.53,0.28 0.66,0.35l-1.03 2.78c-0.54,-0.33 -1.21,-0.6 -2.01,-0.83 -0.8,-0.22 -1.64,-0.33 -2.52,-0.33zm38.68 -2.76c2.7,0 4.76,0.5 6.19,1.49 1.43,0.99 2.15,2.5 2.15,4.53 0,2.53 -1.25,4.25 -3.75,5.15 0.34,0.42 0.72,0.92 1.16,1.51 0.43,0.6 0.87,1.24 1.32,1.93 0.45,0.69 0.88,1.4 1.29,2.13 0.42,0.73 0.78,1.44 1.11,2.14l-3.81 0c-0.34,-0.64 -0.71,-1.29 -1.1,-1.95 -0.4,-0.66 -0.8,-1.3 -1.2,-1.92 -0.41,-0.62 -0.81,-1.2 -1.2,-1.75 -0.4,-0.55 -0.76,-1.04 -1.11,-1.47 -0.25,0.02 -0.47,0.03 -0.64,0.03l-0.52 0 -1.64 0 0 7.06 -3.4 0 0 -18.42c0.83,-0.18 1.71,-0.3 2.64,-0.36 0.94,-0.06 1.77,-0.1 2.51,-0.1zm0.24 2.94c-0.72,0 -1.38,0.03 -1.99,0.09l0 6.04 1.48 0c0.83,0 1.56,-0.05 2.19,-0.14 0.63,-0.09 1.15,-0.25 1.57,-0.48 0.43,-0.24 0.75,-0.55 0.96,-0.95 0.22,-0.39 0.32,-0.9 0.32,-1.51 0,-0.57 -0.1,-1.06 -0.32,-1.45 -0.21,-0.4 -0.52,-0.71 -0.93,-0.95 -0.4,-0.23 -0.88,-0.4 -1.44,-0.5 -0.56,-0.1 -1.17,-0.15 -1.84,-0.15zm48.12 15.94c-0.25,-0.73 -0.51,-1.46 -0.78,-2.18 -0.27,-0.72 -0.53,-1.46 -0.78,-2.21l-7.88 0c-0.25,0.75 -0.5,1.5 -0.77,2.22 -0.26,0.73 -0.51,1.46 -0.76,2.17l-3.54 0c0.7,-1.99 1.37,-3.83 2,-5.52 0.63,-1.69 1.24,-3.29 1.85,-4.81 0.6,-1.51 1.2,-2.94 1.79,-4.31 0.59,-1.37 1.2,-2.72 1.83,-4.05l3.21 0c0.63,1.33 1.24,2.68 1.84,4.05 0.59,1.37 1.19,2.8 1.79,4.31 0.6,1.52 1.22,3.12 1.86,4.81 0.64,1.69 1.31,3.53 2.01,5.52l-3.67 0zm-5.5 -15.07c-0.41,0.95 -0.88,2.11 -1.42,3.48 -0.52,1.36 -1.08,2.85 -1.65,4.45l6.15 0c-0.58,-1.6 -1.14,-3.1 -1.68,-4.48 -0.54,-1.38 -1,-2.54 -1.4,-3.45zm39.46 -3.62c0.4,0.69 0.84,1.52 1.32,2.51 0.49,0.99 0.98,2.03 1.49,3.12 0.5,1.08 1,2.19 1.49,3.32 0.5,1.12 0.95,2.16 1.37,3.11 0.41,-0.95 0.86,-1.99 1.35,-3.11 0.48,-1.13 0.98,-2.24 1.48,-3.32 0.5,-1.09 1,-2.13 1.48,-3.12 0.49,-0.99 0.93,-1.82 1.32,-2.51l3.08 0c0.16,1.37 0.31,2.82 0.46,4.36 0.14,1.54 0.27,3.11 0.39,4.72 0.12,1.61 0.22,3.23 0.32,4.85 0.1,1.63 0.19,3.22 0.26,4.76l-3.35 0c-0.07,-2.17 -0.15,-4.41 -0.25,-6.71 -0.1,-2.3 -0.25,-4.53 -0.45,-6.69 -0.19,0.41 -0.43,0.91 -0.7,1.48 -0.27,0.58 -0.56,1.2 -0.86,1.88 -0.31,0.67 -0.62,1.37 -0.93,2.09 -0.32,0.72 -0.62,1.41 -0.92,2.09 -0.3,0.67 -0.57,1.3 -0.82,1.89 -0.25,0.58 -0.47,1.08 -0.65,1.49l-2.53 0c-0.18,-0.41 -0.4,-0.91 -0.65,-1.51 -0.25,-0.59 -0.53,-1.22 -0.82,-1.9 -0.3,-0.67 -0.61,-1.37 -0.92,-2.09 -0.32,-0.72 -0.63,-1.41 -0.93,-2.08 -0.31,-0.66 -0.6,-1.29 -0.87,-1.87 -0.26,-0.59 -0.5,-1.07 -0.7,-1.47 -0.19,2.16 -0.34,4.39 -0.44,6.69 -0.1,2.3 -0.19,4.54 -0.26,6.71l-3.34 0c0.07,-1.54 0.15,-3.14 0.25,-4.8 0.1,-1.65 0.21,-3.29 0.33,-4.92 0.12,-1.63 0.24,-3.2 0.39,-4.73 0.14,-1.53 0.3,-2.94 0.46,-4.24l3.15 0 0 0zm56.03 18.69c-0.25,-0.73 -0.52,-1.46 -0.79,-2.18 -0.27,-0.72 -0.53,-1.46 -0.78,-2.21l-7.87 0c-0.26,0.75 -0.51,1.5 -0.77,2.22 -0.26,0.73 -0.52,1.46 -0.77,2.17l-3.53 0c0.7,-1.99 1.36,-3.83 1.99,-5.52 0.63,-1.69 1.25,-3.29 1.85,-4.81 0.6,-1.51 1.2,-2.94 1.79,-4.31 0.6,-1.37 1.21,-2.72 1.84,-4.05l3.21 0c0.63,1.33 1.24,2.68 1.83,4.05 0.59,1.37 1.19,2.8 1.79,4.31 0.61,1.52 1.23,3.12 1.87,4.81 0.63,1.69 1.3,3.53 2,5.52l-3.66 0zm-5.51 -15.07c-0.41,0.95 -0.88,2.11 -1.41,3.48 -0.53,1.36 -1.09,2.85 -1.66,4.45l6.15 0c-0.58,-1.6 -1.13,-3.1 -1.67,-4.48 -0.54,-1.38 -1.01,-2.54 -1.41,-3.45zm38.79 12.27c0.2,0.02 0.46,0.03 0.78,0.04 0.33,0.01 0.77,0.01 1.33,0.01 2.28,0 3.98,-0.58 5.11,-1.74 1.12,-1.16 1.68,-2.78 1.68,-4.86 0,-2.13 -0.55,-3.75 -1.64,-4.89 -1.1,-1.13 -2.8,-1.7 -5.1,-1.7 -1.01,0 -1.73,0.03 -2.16,0.09l0 13.05zm12.46 -6.55c0,1.61 -0.25,3.02 -0.75,4.22 -0.51,1.19 -1.22,2.19 -2.15,2.99 -0.92,0.8 -2.04,1.4 -3.34,1.78 -1.3,0.39 -2.75,0.58 -4.33,0.58 -0.76,0 -1.61,-0.03 -2.56,-0.09 -0.96,-0.07 -1.86,-0.2 -2.73,-0.39l0 -18.16c0.87,-0.2 1.78,-0.32 2.75,-0.37 0.98,-0.06 1.84,-0.09 2.59,-0.09 1.57,0 3,0.19 4.29,0.56 1.3,0.37 2.41,0.94 3.33,1.72 0.93,0.79 1.64,1.77 2.15,2.97 0.5,1.2 0.75,2.62 0.75,4.28zm30.35 0c0,1.02 0.12,1.95 0.38,2.79 0.25,0.83 0.61,1.54 1.09,2.13 0.47,0.58 1.05,1.04 1.74,1.36 0.68,0.32 1.45,0.49 2.32,0.49 0.84,0 1.61,-0.17 2.29,-0.49 0.68,-0.32 1.26,-0.78 1.74,-1.36 0.48,-0.59 0.84,-1.3 1.09,-2.13 0.25,-0.84 0.38,-1.77 0.38,-2.79 0,-1.03 -0.13,-1.96 -0.38,-2.8 -0.25,-0.83 -0.61,-1.54 -1.09,-2.13 -0.48,-0.58 -1.06,-1.04 -1.74,-1.36 -0.68,-0.32 -1.45,-0.48 -2.29,-0.48 -0.87,0 -1.64,0.16 -2.32,0.48 -0.69,0.32 -1.27,0.78 -1.74,1.38 -0.48,0.59 -0.84,1.3 -1.09,2.13 -0.26,0.82 -0.38,1.75 -0.38,2.78zm14.59 0c0,1.6 -0.24,3.01 -0.71,4.23 -0.48,1.22 -1.13,2.24 -1.95,3.06 -0.81,0.82 -1.77,1.44 -2.87,1.85 -1.1,0.41 -2.26,0.62 -3.5,0.62 -1.25,0 -2.42,-0.21 -3.52,-0.62 -1.11,-0.41 -2.07,-1.03 -2.89,-1.85 -0.82,-0.82 -1.47,-1.84 -1.96,-3.06 -0.48,-1.22 -0.73,-2.63 -0.73,-4.23 0,-1.61 0.25,-3.01 0.73,-4.23 0.49,-1.21 1.15,-2.23 1.99,-3.06 0.83,-0.82 1.8,-1.44 2.9,-1.86 1.09,-0.41 2.25,-0.62 3.48,-0.62 1.22,0 2.38,0.21 3.47,0.62 1.1,0.42 2.06,1.04 2.88,1.86 0.81,0.83 1.47,1.85 1.95,3.06 0.49,1.22 0.73,2.62 0.73,4.23zm32.72 -9.53c2.7,0 4.76,0.5 6.19,1.49 1.43,0.99 2.14,2.5 2.14,4.53 0,2.53 -1.25,4.25 -3.75,5.15 0.35,0.42 0.73,0.92 1.16,1.51 0.44,0.6 0.88,1.24 1.33,1.93 0.45,0.69 0.88,1.4 1.29,2.13 0.41,0.73 0.78,1.44 1.11,2.14l-3.81 0c-0.34,-0.64 -0.71,-1.29 -1.1,-1.95 -0.4,-0.66 -0.8,-1.3 -1.2,-1.92 -0.41,-0.62 -0.81,-1.2 -1.2,-1.75 -0.4,-0.55 -0.77,-1.04 -1.11,-1.47 -0.25,0.02 -0.47,0.03 -0.65,0.03l-0.51 0 -1.64 0 0 7.06 -3.4 0 0 -18.42c0.82,-0.18 1.71,-0.3 2.64,-0.36 0.94,-0.06 1.77,-0.1 2.51,-0.1zm0.24 2.94c-0.72,0 -1.38,0.03 -1.99,0.09l0 6.04 1.48 0c0.83,0 1.56,-0.05 2.18,-0.14 0.63,-0.09 1.16,-0.25 1.58,-0.48 0.43,-0.24 0.74,-0.55 0.96,-0.95 0.21,-0.39 0.32,-0.9 0.32,-1.51 0,-0.57 -0.11,-1.06 -0.32,-1.45 -0.22,-0.4 -0.53,-0.71 -0.93,-0.95 -0.41,-0.23 -0.89,-0.4 -1.44,-0.5 -0.56,-0.1 -1.17,-0.15 -1.84,-0.15z"/>
   </g>
   <g id="SvgjsG2745" featurekey="Yxc9Rz-0">
    <path class="fil1" d="M313.27 836.5c0.27,-3.03 1.21,-6.05 2.82,-9.08 1.6,-3.02 3.5,-5.5 5.7,-7.42 9.81,5.96 19.11,8.94 27.91,8.94 3.85,0 6.66,-0.87 8.45,-2.62 1.79,-1.74 2.68,-3.89 2.68,-6.46 0,-4.3 -2.89,-7.69 -8.66,-10.17l-16.22 -6.87c-6.32,-2.84 -11.18,-6.26 -14.57,-10.24 -3.39,-3.99 -5.09,-9.05 -5.09,-15.19 0,-4.22 0.85,-8.06 2.55,-11.55 1.69,-3.48 4.07,-6.5 7.14,-9.07 3.07,-2.57 6.72,-4.56 10.93,-5.98 4.22,-1.42 8.89,-2.13 14.02,-2.13 10.27,0 20.62,2.61 31.07,7.84 -0.46,7.05 -2.93,12.55 -7.42,16.49 -9.35,-4.49 -17.6,-6.74 -24.75,-6.74 -3.66,0 -6.41,0.83 -8.24,2.48 -1.84,1.65 -2.75,3.53 -2.75,5.63 0,3.58 2.7,6.47 8.11,8.66l16.49 7.01c6.97,2.94 12.17,6.69 15.6,11.28 3.44,4.58 5.16,9.89 5.16,15.94 0,4.31 -0.78,8.25 -2.34,11.82 -1.56,3.58 -3.87,6.67 -6.94,9.28 -3.07,2.61 -6.9,4.65 -11.48,6.12 -4.58,1.46 -9.94,2.2 -16.08,2.2 -11.91,0 -23.28,-3.39 -34.09,-10.17zm85.22 8.11l0 -93.89c2.84,-0.55 6.51,-0.82 11,-0.82 4.49,0 8.2,0.27 11.13,0.82l0 93.89c-2.93,0.54 -6.64,0.82 -11.13,0.82 -4.49,0 -8.16,-0.28 -11,-0.82zm78.08 -18.56l23.78 0c0,3.66 -0.23,6.8 -0.69,9.41 -0.46,2.62 -1.92,4.86 -4.4,6.74 -2.47,1.88 -5.72,2.82 -9.76,2.82l-31.06 0c-3.94,0 -7.06,-1.15 -9.35,-3.44 -2.29,-2.29 -3.44,-5.4 -3.44,-9.35l0 -81.51 0.97 -0.96 8.11 0c8.61,0 12.92,4.67 12.92,14.02l0 62.82c4.03,-0.37 8.34,-0.55 12.92,-0.55zm60.34 0.14l18.01 -75.47c2.2,-0.55 5.04,-0.82 8.52,-0.82 4.77,0 8.52,0.5 11.27,1.51l0.83 1.1 -25.71 92.1c-5.22,0.54 -10.47,0.82 -15.73,0.82 -5.27,0 -9.08,-0.66 -11.41,-1.99 -2.34,-1.33 -4.1,-3.97 -5.3,-7.91l-22.81 -82.88c4.94,-2.11 9.02,-3.16 12.23,-3.16 3.85,0 6.69,0.87 8.52,2.61 1.84,1.74 3.26,4.49 4.26,8.24l10.59 39.18c1.65,6.14 3.39,14.48 5.22,25.02 0.18,1.1 0.69,1.65 1.51,1.65zm71.76 -9.35l-0.14 9.9 0 0.13c4.21,-0.18 7.61,-0.27 10.17,-0.27l31.89 0c0,3.39 -0.14,6 -0.41,7.83 -1.1,7.06 -5.77,10.59 -14.02,10.59l-36.57 0c-3.94,0 -7.03,-1.15 -9.27,-3.44 -2.25,-2.29 -3.37,-5.4 -3.37,-9.35l0 -80.55 0.96 -0.96 59.24 0c0.55,2.66 0.83,5.55 0.83,8.66 0,3.12 -0.64,6.37 -1.93,9.76l-37.52 0 0.14 9.9 0 9.62c2.38,-0.09 5.49,-0.14 9.34,-0.14l21.03 0c0.83,2.57 1.24,5.5 1.24,8.8 0,3.3 -0.41,6.32 -1.24,9.07l-30.37 0 0 10.45 0 0zm57.45 27.77l0 -93.89c2.84,-0.55 6.51,-0.82 11,-0.82 4.49,0 8.2,0.27 11.13,0.82l0 93.89c-2.93,0.54 -6.64,0.82 -11.13,0.82 -4.49,0 -8.16,-0.28 -11,-0.82zm110.66 -64.88c0,3.02 -0.46,5.88 -1.38,8.59 -0.92,2.7 -2.13,5.13 -3.64,7.28 -1.51,2.16 -3.3,4.03 -5.36,5.64 -2.06,1.6 -4.19,2.82 -6.39,3.64 4.76,1.74 8.29,5.96 10.58,12.65l4.12 11.68c1.56,4.58 3.85,7.97 6.88,10.17 -1.38,1.83 -3.44,3.37 -6.19,4.61 -2.75,1.23 -5.77,1.85 -9.07,1.85 -3.3,0 -5.87,-0.94 -7.7,-2.82 -1.83,-1.87 -3.53,-5.15 -5.08,-9.82l-4.95 -14.44c-1.01,-2.75 -2.36,-4.85 -4.06,-6.32 -1.69,-1.47 -4.24,-2.2 -7.63,-2.2l-5.63 0 0 34.37c-2.93,0.54 -6.6,0.82 -11,0.82 -4.4,0 -8.02,-0.28 -10.86,-0.82l0 -93.2 0.97 -0.96c7.97,-0.19 14.68,-0.32 20.13,-0.41 5.46,-0.1 9.74,-0.14 12.85,-0.14 5.04,0 9.63,0.62 13.75,1.85 4.12,1.24 7.63,3.1 10.52,5.57 2.88,2.47 5.13,5.59 6.73,9.35 1.6,3.75 2.41,8.11 2.41,13.06zm-45.5 -13.34l0 26.94c4.12,0 7.65,-0.07 10.58,-0.2 2.93,-0.14 5.29,-0.69 7.08,-1.65 1.79,-0.96 3.14,-2.32 4.06,-4.06 0.91,-1.74 1.37,-4.26 1.37,-7.56 0,-8.89 -4.31,-13.33 -12.92,-13.33l-5.7 0c0,0 -1.49,-0.05 -4.47,-0.14zm85.5 58.56c-2.48,0 -4.31,-0.05 -5.5,-0.14l-5.91 19.93c-2.2,0.55 -5.27,0.83 -9.21,0.83 -4.4,0 -7.97,-0.51 -10.72,-1.51l-0.69 -1.1 30.24 -92.24c3.57,-0.55 7.74,-0.82 12.51,-0.82 5.4,0 9.71,0.32 12.92,0.96l29.69 92.37c-3.21,1.74 -6.83,2.61 -10.86,2.61 -4.76,0 -8.11,-0.82 -10.03,-2.47 -1.93,-1.65 -3.58,-4.81 -4.95,-9.49l-2.61 -9.07c-1.19,0.09 -2.98,0.14 -5.36,0.14l-19.52 0 0 0zm-0.42 -17.32l5.5 -0.14 10.04 0c0.46,0 1.26,0.02 2.4,0.07 1.15,0.05 2,0.07 2.55,0.07l-2.34 -8.52c-2.2,-7.7 -4.72,-17.14 -7.56,-28.32l-0.83 0c-0.73,3.94 -2.93,12.69 -6.59,26.26l-3.17 10.58z"/>
   </g>
  </g>
 </g>
</svg>
